<svg width="1440" height="900" viewBox="0 0 1440 900" version="1.1" xmlns="http://www.w3.org/2000/svg" xmlns:xlink="http://www.w3.org/1999/xlink">
<g id="Canvas" fill="none">
<g id="MacBook Pro 2.8" clip-path="url(#clip0)">
<g id="Rectangle">
<rect width="1440" height="900" fill="#0B0C10"/>
</g>
<g id="Rectangle 2">
<rect x="5" y="5" width="524" height="524" stroke-width="10" transform="translate(453 183)" stroke="url(#paint0_linear)"/>
</g>
<g id="HELLO, THIS IS MY PORTFOLIO.">
<path d="M 45.955 17.5L 45.955 63L 39.455 63L 39.455 42.72L 13.325 42.72L 13.325 63L 6.825 63L 6.825 17.5L 13.325 17.5L 13.325 37.065L 39.455 37.065L 39.455 17.5L 45.955 17.5ZM 92.594 57.345L 92.594 63L 59.574 63L 59.574 17.5L 91.684 17.5L 91.684 23.155L 66.074 23.155L 66.074 37.13L 88.889 37.13L 88.889 42.655L 66.074 42.655L 66.074 57.345L 92.594 57.345ZM 103.119 17.5L 109.619 17.5L 109.619 57.345L 134.254 57.345L 134.254 63L 103.119 63L 103.119 17.5ZM 141.713 17.5L 148.213 17.5L 148.213 57.345L 172.848 57.345L 172.848 63L 141.713 63L 141.713 17.5ZM 200.021 63.52C 195.428 63.52 191.29 62.5233 187.606 60.53C 183.923 58.4933 181.02 55.6983 178.896 52.145C 176.816 48.5917 175.776 44.6267 175.776 40.25C 175.776 35.8733 176.816 31.9083 178.896 28.355C 181.02 24.8017 183.923 22.0283 187.606 20.035C 191.29 17.9983 195.428 16.98 200.021 16.98C 204.571 16.98 208.688 17.9983 212.371 20.035C 216.055 22.0283 218.936 24.8017 221.016 28.355C 223.096 31.865 224.136 35.83 224.136 40.25C 224.136 44.67 223.096 48.6567 221.016 52.21C 218.936 55.72 216.055 58.4933 212.371 60.53C 208.688 62.5233 204.571 63.52 200.021 63.52ZM 200.021 57.735C 203.358 57.735 206.348 56.9767 208.991 55.46C 211.678 53.9433 213.78 51.8633 215.296 49.22C 216.856 46.5333 217.636 43.5433 217.636 40.25C 217.636 36.9567 216.856 33.9883 215.296 31.345C 213.78 28.6583 211.678 26.5567 208.991 25.04C 206.348 23.5233 203.358 22.765 200.021 22.765C 196.685 22.765 193.651 23.5233 190.921 25.04C 188.235 26.5567 186.111 28.6583 184.551 31.345C 183.035 33.9883 182.276 36.9567 182.276 40.25C 182.276 43.5433 183.035 46.5333 184.551 49.22C 186.111 51.8633 188.235 53.9433 190.921 55.46C 193.651 56.9767 196.685 57.735 200.021 57.735ZM 233.452 54.485C 234.665 54.485 235.662 54.9183 236.442 55.785C 237.265 56.6083 237.677 57.6483 237.677 58.905C 237.677 59.555 237.59 60.1833 237.417 60.79C 237.287 61.3967 237.005 62.3283 236.572 63.585L 233.517 72.62L 229.422 72.62L 231.827 62.935C 231.003 62.6317 230.332 62.1333 229.812 61.44C 229.335 60.7033 229.097 59.8583 229.097 58.905C 229.097 57.605 229.508 56.5433 230.332 55.72C 231.155 54.8967 232.195 54.485 233.452 54.485ZM 15.86 102.155L 0.26 102.155L 0.26 96.5L 37.895 96.5L 37.895 102.155L 22.295 102.155L 22.295 142L 15.86 142L 15.86 102.155ZM 84.1044 96.5L 84.1044 142L 77.6044 142L 77.6044 121.72L 51.4744 121.72L 51.4744 142L 44.9744 142L 44.9744 96.5L 51.4744 96.5L 51.4744 116.065L 77.6044 116.065L 77.6044 96.5L 84.1044 96.5ZM 97.7234 96.5L 104.223 96.5L 104.223 142L 97.7234 142L 97.7234 96.5ZM 131.106 142.52C 127.682 142.52 124.367 142 121.161 140.96C 117.997 139.877 115.506 138.49 113.686 136.8L 116.091 131.73C 117.824 133.29 120.034 134.568 122.721 135.565C 125.451 136.518 128.246 136.995 131.106 136.995C 134.876 136.995 137.692 136.367 139.556 135.11C 141.419 133.81 142.351 132.098 142.351 129.975C 142.351 128.415 141.831 127.158 140.791 126.205C 139.794 125.208 138.537 124.45 137.021 123.93C 135.547 123.41 133.446 122.825 130.716 122.175C 127.292 121.352 124.519 120.528 122.396 119.705C 120.316 118.882 118.517 117.625 117.001 115.935C 115.527 114.202 114.791 111.883 114.791 108.98C 114.791 106.553 115.419 104.365 116.676 102.415C 117.976 100.465 119.926 98.905 122.526 97.735C 125.126 96.565 128.354 95.98 132.211 95.98C 134.897 95.98 137.541 96.3267 140.141 97.02C 142.741 97.7133 144.972 98.71 146.836 100.01L 144.691 105.21C 142.784 103.997 140.747 103.087 138.581 102.48C 136.414 101.83 134.291 101.505 132.211 101.505C 128.527 101.505 125.754 102.177 123.891 103.52C 122.071 104.863 121.161 106.597 121.161 108.72C 121.161 110.28 121.681 111.558 122.721 112.555C 123.761 113.508 125.039 114.267 126.556 114.83C 128.116 115.35 130.217 115.913 132.861 116.52C 136.284 117.343 139.036 118.167 141.116 118.99C 143.196 119.813 144.972 121.07 146.446 122.76C 147.962 124.45 148.721 126.725 148.721 129.585C 148.721 131.968 148.071 134.157 146.771 136.15C 145.471 138.1 143.499 139.66 140.856 140.83C 138.212 141.957 134.962 142.52 131.106 142.52ZM 175.673 96.5L 182.173 96.5L 182.173 142L 175.673 142L 175.673 96.5ZM 209.055 142.52C 205.631 142.52 202.316 142 199.11 140.96C 195.946 139.877 193.455 138.49 191.635 136.8L 194.04 131.73C 195.773 133.29 197.983 134.568 200.67 135.565C 203.4 136.518 206.195 136.995 209.055 136.995C 212.825 136.995 215.641 136.367 217.505 135.11C 219.368 133.81 220.3 132.098 220.3 129.975C 220.3 128.415 219.78 127.158 218.74 126.205C 217.743 125.208 216.486 124.45 214.97 123.93C 213.496 123.41 211.395 122.825 208.665 122.175C 205.241 121.352 202.468 120.528 200.345 119.705C 198.265 118.882 196.466 117.625 194.95 115.935C 193.476 114.202 192.74 111.883 192.74 108.98C 192.74 106.553 193.368 104.365 194.625 102.415C 195.925 100.465 197.875 98.905 200.475 97.735C 203.075 96.565 206.303 95.98 210.16 95.98C 212.846 95.98 215.49 96.3267 218.09 97.02C 220.69 97.7133 222.921 98.71 224.785 100.01L 222.64 105.21C 220.733 103.997 218.696 103.087 216.53 102.48C 214.363 101.83 212.24 101.505 210.16 101.505C 206.476 101.505 203.703 102.177 201.84 103.52C 200.02 104.863 199.11 106.597 199.11 108.72C 199.11 110.28 199.63 111.558 200.67 112.555C 201.71 113.508 202.988 114.267 204.505 114.83C 206.065 115.35 208.166 115.913 210.81 116.52C 214.233 117.343 216.985 118.167 219.065 118.99C 221.145 119.813 222.921 121.07 224.395 122.76C 225.911 124.45 226.67 126.725 226.67 129.585C 226.67 131.968 226.02 134.157 224.72 136.15C 223.42 138.1 221.448 139.66 218.805 140.83C 216.161 141.957 212.911 142.52 209.055 142.52ZM 295.807 142L 295.742 108.85L 279.297 136.475L 276.307 136.475L 259.862 109.045L 259.862 142L 253.622 142L 253.622 96.5L 258.952 96.5L 277.932 128.48L 296.652 96.5L 301.982 96.5L 302.047 142L 295.807 142ZM 333.122 126.27L 333.122 142L 326.687 142L 326.687 126.14L 308.617 96.5L 315.572 96.5L 330.132 120.485L 344.757 96.5L 351.192 96.5L 333.122 126.27ZM 392.988 96.5C 398.881 96.5 403.518 97.9083 406.898 100.725C 410.278 103.542 411.968 107.42 411.968 112.36C 411.968 117.3 410.278 121.178 406.898 123.995C 403.518 126.812 398.881 128.22 392.988 128.22L 381.743 128.22L 381.743 142L 375.243 142L 375.243 96.5L 392.988 96.5ZM 392.793 122.565C 396.91 122.565 400.051 121.698 402.218 119.965C 404.385 118.188 405.468 115.653 405.468 112.36C 405.468 109.067 404.385 106.553 402.218 104.82C 400.051 103.043 396.91 102.155 392.793 102.155L 381.743 102.155L 381.743 122.565L 392.793 122.565ZM 442.692 142.52C 438.099 142.52 433.96 141.523 430.277 139.53C 426.594 137.493 423.69 134.698 421.567 131.145C 419.487 127.592 418.447 123.627 418.447 119.25C 418.447 114.873 419.487 110.908 421.567 107.355C 423.69 103.802 426.594 101.028 430.277 99.035C 433.96 96.9983 438.099 95.98 442.692 95.98C 447.242 95.98 451.359 96.9983 455.042 99.035C 458.725 101.028 461.607 103.802 463.687 107.355C 465.767 110.865 466.807 114.83 466.807 119.25C 466.807 123.67 465.767 127.657 463.687 131.21C 461.607 134.72 458.725 137.493 455.042 139.53C 451.359 141.523 447.242 142.52 442.692 142.52ZM 442.692 136.735C 446.029 136.735 449.019 135.977 451.662 134.46C 454.349 132.943 456.45 130.863 457.967 128.22C 459.527 125.533 460.307 122.543 460.307 119.25C 460.307 115.957 459.527 112.988 457.967 110.345C 456.45 107.658 454.349 105.557 451.662 104.04C 449.019 102.523 446.029 101.765 442.692 101.765C 439.355 101.765 436.322 102.523 433.592 104.04C 430.905 105.557 428.782 107.658 427.222 110.345C 425.705 112.988 424.947 115.957 424.947 119.25C 424.947 122.543 425.705 125.533 427.222 128.22C 428.782 130.863 430.905 132.943 433.592 134.46C 436.322 135.977 439.355 136.735 442.692 136.735ZM 507.162 142L 497.347 128.025C 496.134 128.112 495.18 128.155 494.487 128.155L 483.242 128.155L 483.242 142L 476.742 142L 476.742 96.5L 494.487 96.5C 500.38 96.5 505.017 97.9083 508.397 100.725C 511.777 103.542 513.467 107.42 513.467 112.36C 513.467 115.87 512.6 118.86 510.867 121.33C 509.134 123.8 506.664 125.598 503.457 126.725L 514.247 142L 507.162 142ZM 494.292 122.63C 498.409 122.63 501.55 121.742 503.717 119.965C 505.884 118.188 506.967 115.653 506.967 112.36C 506.967 109.067 505.884 106.553 503.717 104.82C 501.55 103.043 498.409 102.155 494.292 102.155L 483.242 102.155L 483.242 122.63L 494.292 122.63ZM 532.369 102.155L 516.769 102.155L 516.769 96.5L 554.404 96.5L 554.404 102.155L 538.804 102.155L 538.804 142L 532.369 142L 532.369 102.155ZM 567.983 102.155L 567.983 118.015L 590.798 118.015L 590.798 123.605L 567.983 123.605L 567.983 142L 561.483 142L 561.483 96.5L 593.593 96.5L 593.593 102.155L 567.983 102.155ZM 622.775 142.52C 618.182 142.52 614.043 141.523 610.36 139.53C 606.677 137.493 603.773 134.698 601.65 131.145C 599.57 127.592 598.53 123.627 598.53 119.25C 598.53 114.873 599.57 110.908 601.65 107.355C 603.773 103.802 606.677 101.028 610.36 99.035C 614.043 96.9983 618.182 95.98 622.775 95.98C 627.325 95.98 631.442 96.9983 635.125 99.035C 638.808 101.028 641.69 103.802 643.77 107.355C 645.85 110.865 646.89 114.83 646.89 119.25C 646.89 123.67 645.85 127.657 643.77 131.21C 641.69 134.72 638.808 137.493 635.125 139.53C 631.442 141.523 627.325 142.52 622.775 142.52ZM 622.775 136.735C 626.112 136.735 629.102 135.977 631.745 134.46C 634.432 132.943 636.533 130.863 638.05 128.22C 639.61 125.533 640.39 122.543 640.39 119.25C 640.39 115.957 639.61 112.988 638.05 110.345C 636.533 107.658 634.432 105.557 631.745 104.04C 629.102 102.523 626.112 101.765 622.775 101.765C 619.438 101.765 616.405 102.523 613.675 104.04C 610.988 105.557 608.865 107.658 607.305 110.345C 605.788 112.988 605.03 115.957 605.03 119.25C 605.03 122.543 605.788 125.533 607.305 128.22C 608.865 130.863 610.988 132.943 613.675 134.46C 616.405 135.977 619.438 136.735 622.775 136.735ZM 656.825 96.5L 663.325 96.5L 663.325 136.345L 687.96 136.345L 687.96 142L 656.825 142L 656.825 96.5ZM 695.419 96.5L 701.919 96.5L 701.919 142L 695.419 142L 695.419 96.5ZM 736.081 142.52C 731.487 142.52 727.349 141.523 723.666 139.53C 719.982 137.493 717.079 134.698 714.956 131.145C 712.876 127.592 711.836 123.627 711.836 119.25C 711.836 114.873 712.876 110.908 714.956 107.355C 717.079 103.802 719.982 101.028 723.666 99.035C 727.349 96.9983 731.487 95.98 736.081 95.98C 740.631 95.98 744.747 96.9983 748.431 99.035C 752.114 101.028 754.996 103.802 757.076 107.355C 759.156 110.865 760.196 114.83 760.196 119.25C 760.196 123.67 759.156 127.657 757.076 131.21C 754.996 134.72 752.114 137.493 748.431 139.53C 744.747 141.523 740.631 142.52 736.081 142.52ZM 736.081 136.735C 739.417 136.735 742.407 135.977 745.051 134.46C 747.737 132.943 749.839 130.863 751.356 128.22C 752.916 125.533 753.696 122.543 753.696 119.25C 753.696 115.957 752.916 112.988 751.356 110.345C 749.839 107.658 747.737 105.557 745.051 104.04C 742.407 102.523 739.417 101.765 736.081 101.765C 732.744 101.765 729.711 102.523 726.981 104.04C 724.294 105.557 722.171 107.658 720.611 110.345C 719.094 112.988 718.336 115.957 718.336 119.25C 718.336 122.543 719.094 125.533 720.611 128.22C 722.171 130.863 724.294 132.943 726.981 134.46C 729.711 135.977 732.744 136.735 736.081 136.735ZM 769.446 142.39C 768.233 142.39 767.193 141.978 766.326 141.155C 765.459 140.288 765.026 139.205 765.026 137.905C 765.026 136.648 765.459 135.608 766.326 134.785C 767.193 133.918 768.233 133.485 769.446 133.485C 770.659 133.485 771.678 133.897 772.501 134.72C 773.324 135.543 773.736 136.605 773.736 137.905C 773.736 139.205 773.303 140.288 772.436 141.155C 771.613 141.978 770.616 142.39 769.446 142.39Z" transform="translate(352 308)" fill="white"/>
</g>
</g>
</g>
<defs>

<linearGradient id="paint0_linear" x2="1" gradientUnits="userSpaceOnUse" gradientTransform="matrix(0 534 -534 0 534 0)">
<stop stop-color="#F70040"/>
<stop offset="1" stop-color="#D20943"/>
</linearGradient>

<clipPath id="clip0">
<rect width="1440" height="900" fill="white"/>
</clipPath>

</defs>
</svg>

